<svg id="_7" data-name="7" xmlns="http://www.w3.org/2000/svg" xmlns:xlink="http://www.w3.org/1999/xlink" width="47.333" height="47.333" viewBox="0 0 47.333 47.333">
  <defs>
    <linearGradient id="linear-gradient" x1="0.844" x2="0.5" y2="1" gradientUnits="objectBoundingBox">
      <stop offset="0" stop-color="#16f9b2"/>
      <stop offset="0.51" stop-color="#365ef3"/>
      <stop offset="1" stop-color="#7c3cdc"/>
    </linearGradient>
  </defs>
  <path id="Path_25" data-name="Path 25" d="M0,0H47.333V47.333H0Z" fill="none"/>
  <path id="Path_26" data-name="Path 26" d="M39.472,38.5H3.972A1.972,1.972,0,0,1,2,36.528V21.711a1.972,1.972,0,0,1,.677-1.487l7.212-6.289V4.972A1.972,1.972,0,0,1,11.861,3H39.472a1.972,1.972,0,0,1,1.972,1.972V36.528A1.972,1.972,0,0,1,39.472,38.5ZM15.806,34.556h5.917V22.608l-7.889-6.879L5.944,22.608V34.556h5.917V26.667h3.944Zm9.861,0H37.5V6.944H13.833v4.195a1.961,1.961,0,0,1,1.3.487l9.861,8.6a1.972,1.972,0,0,1,.676,1.487Zm3.944-15.778h3.944v3.944H29.611Zm0,7.889h3.944v3.944H29.611Zm0-15.778h3.944v3.944H29.611Zm-7.889,0h3.944v3.944H21.722Z" transform="translate(1.944 2.917)" fill="url(#linear-gradient)"/>
</svg>
