<svg xmlns="http://www.w3.org/2000/svg" xmlns:xlink="http://www.w3.org/1999/xlink" width="55.14" height="55.158" viewBox="0 0 55.14 55.158">
  <defs>
    <linearGradient id="linear-gradient" y1="0.673" x2="1" y2="0.383" gradientUnits="objectBoundingBox">
      <stop offset="0" stop-color="#7c3cdc"/>
      <stop offset="0.489" stop-color="#365ef3"/>
      <stop offset="1" stop-color="#18ddbc"/>
    </linearGradient>
  </defs>
  <g id="_2" data-name="2" transform="translate(-0.084)">
    <g id="Group_188" data-name="Group 188" transform="translate(0.084)">
      <g id="Group_187" data-name="Group 187" transform="translate(0)">
        <path id="Path_20" data-name="Path 20" d="M49.567,5.666a19.344,19.344,0,0,0-27.356,0L5.741,22.136A19.344,19.344,0,1,0,33.1,49.492l16.47-16.47A19.366,19.366,0,0,0,49.567,5.666ZM47.25,30.7,30.78,47.175A16.067,16.067,0,0,1,8.058,24.453l16.47-16.47A16.067,16.067,0,0,1,47.25,30.7Z" transform="translate(-0.084)" fill="url(#linear-gradient)"/>
      </g>
    </g>
    <g id="Group_190" data-name="Group 190" transform="translate(5.543 5.467)">
      <g id="Group_189" data-name="Group 189">
        <path id="Path_21" data-name="Path 21" d="M90.919,54.81a13.9,13.9,0,0,0-19.633,0L54.816,71.28A13.882,13.882,0,0,0,74.449,90.913l16.47-16.47A13.9,13.9,0,0,0,90.919,54.81ZM88.6,72.126,72.132,88.6a10.606,10.606,0,0,1-15-15L73.6,57.127a10.605,10.605,0,1,1,15,15Z" transform="translate(-50.757 -50.75)" fill="url(#linear-gradient)"/>
      </g>
    </g>
    <g id="Group_192" data-name="Group 192" transform="translate(34.584 12.144)">
      <g id="Group_191" data-name="Group 191">
        <path id="Path_22" data-name="Path 22" d="M327.586,113.971a4.252,4.252,0,1,0,1.246,3.007A4.225,4.225,0,0,0,327.586,113.971Zm-2.317,3.7a.976.976,0,1,1,.286-.69A.97.97,0,0,1,325.269,117.667Z" transform="translate(-320.326 -112.725)" fill="url(#linear-gradient)"/>
      </g>
    </g>
    <g id="Group_194" data-name="Group 194" transform="translate(12.386 14.629)">
      <g id="Group_193" data-name="Group 193">
        <rect id="Rectangle_88" data-name="Rectangle 88" width="24.385" height="3.277" transform="translate(0 17.243) rotate(-45)" fill="url(#linear-gradient)"/>
      </g>
    </g>
    <g id="Group_196" data-name="Group 196" transform="translate(14.94 19.962)">
      <g id="Group_195" data-name="Group 195">
        <rect id="Rectangle_89" data-name="Rectangle 89" width="25.477" height="3.277" transform="translate(0 18.015) rotate(-45)" fill="url(#linear-gradient)"/>
      </g>
    </g>
    <g id="Group_198" data-name="Group 198" transform="translate(21.044 23.286)">
      <g id="Group_197" data-name="Group 197">
        <rect id="Rectangle_90" data-name="Rectangle 90" width="24.385" height="3.277" transform="translate(0 17.243) rotate(-45)" fill="url(#linear-gradient)"/>
      </g>
    </g>
  </g>
</svg>
