<svg xmlns="http://www.w3.org/2000/svg" xmlns:xlink="http://www.w3.org/1999/xlink" width="39.55" height="38.917" viewBox="0 0 39.55 38.917">
  <defs>
    <linearGradient id="linear-gradient" x1="0.076" y1="0.754" x2="1.1" y2="0.253" gradientUnits="objectBoundingBox">
      <stop offset="0" stop-color="#7c3cdc"/>
      <stop offset="0.531" stop-color="#365ef3"/>
      <stop offset="1" stop-color="#16f9b2"/>
    </linearGradient>
  </defs>
  <path id="_5" data-name="5" d="M42.528,39.058c-.033-.566-.1-1.126-.137-1.689a31.218,31.218,0,0,1,.027-3.773,1.257,1.257,0,0,0-1.25-1.25,1.208,1.208,0,0,0-.858.356.988.988,0,0,0-.417-.071c-.132.011-.263.024-.394.04-.033-.4-.049-.793-.064-1.185-.021-.519-.041-1.033-.056-1.549-.038-1.167-.1-2.338-.152-3.5s-.012-2.335,0-3.5c.006-.56,0-1.117.03-1.676s.068-1.144.087-1.719c.035-1.027.035-2.06.059-3.088s.041-2.041.044-3.065c.169.021.336.044.507.059.277.027.56.033.84.041a1.111,1.111,0,0,0,.354-.068c.012,0,.023.008.037.008a1.188,1.188,0,0,0,1.176-1.176c-.006-1.12.012-2.242.035-3.365.027-1.244.143-2.484.152-3.728a1.235,1.235,0,0,0-.389-.893,1.258,1.258,0,0,0-.856-.835,6.1,6.1,0,0,0-1.042-.093c-.3-.018-.6-.035-.905-.05-.473-.021-.942-.062-1.415-.065-.572,0-1.142-.008-1.714-.008-.972,0-1.943.009-2.915.038a1.394,1.394,0,0,0-1.378,1.375,1.411,1.411,0,0,0,.443,1c.02.3.038.595.056.891-.469.029-.939.024-1.406.032-.554.006-1.1.041-1.655.044-1.033,0-2.064.012-3.094.006-1.2-.008-2.4,0-3.593-.02-1.15-.015-2.3-.068-3.449-.09-1.042-.018-2.084-.006-3.126-.033-.891-.021-1.783-.049-2.674-.075,0-.3,0-.593,0-.891a1.234,1.234,0,0,0-.275-.751c0-.014.008-.024.008-.038a1.277,1.277,0,0,0-.373-.9,1.35,1.35,0,0,0-.9-.373c-1.123-.1-2.248.009-3.374.009-1.413,0-2.825-.04-4.236-.058H4.266A1.291,1.291,0,0,0,3,4.652a1.269,1.269,0,0,0,.438.943c.023.549.052,1.1.064,1.647.011.587.008,1.171,0,1.757s0,1.173,0,1.757a15.627,15.627,0,0,0,.053,1.667,1.3,1.3,0,0,0,.356.858,1.22,1.22,0,0,0,.861.354,1.148,1.148,0,0,0,.31-.062c.494,0,.989-.017,1.482-.029-.014,1.173-.006,2.346-.044,3.518-.04,1.127-.076,2.257-.175,3.38-.047.548-.119,1.094-.116,1.644,0,.575.012,1.147.012,1.72,0,1.15-.012,2.3,0,3.449.009.964.056,1.929.106,2.892.041.739.064,1.477.116,2.212-.333,0-.668-.012-1-.014a1.29,1.29,0,0,0-1.089.636,1.213,1.213,0,0,0-.59,1.025c.009.675.044,1.352.041,2.025q0,.812-.018,1.626c-.012.522-.012,1.042-.018,1.564,0,.227.009.453.027.678a2.258,2.258,0,0,0,.242,1.007c.008.015.023.024.032.038a1.262,1.262,0,0,0,1.162.783c1.4-.015,2.79-.027,4.186-.012.417.006.828.038,1.244.035a10.586,10.586,0,0,1,1.164.03l-.09-.012a1.2,1.2,0,0,0,.739-.152,1.246,1.246,0,0,0,.563-.732,1.307,1.307,0,0,0,.011-.155A1.17,1.17,0,0,0,13.7,39.71c0-.085,0-.169,0-.254,2.385-.12,4.763-.2,7.151-.151,1.188.021,2.373.037,3.558.09,1.088.05,2.171.113,3.261.119.929.006,1.86.032,2.793.035.608,0,1.217,0,1.825-.023.026.4.053.8.11,1.2a1.129,1.129,0,0,0,.767.794,1.257,1.257,0,0,0,1.06.6c1.114-.024,2.227-.093,3.341-.1q.374,0,.753.009a9.379,9.379,0,0,0,2.087-.116,1.112,1.112,0,0,0,.7-.523,1.179,1.179,0,0,0,1.366-.837A5.877,5.877,0,0,0,42.528,39.058ZM37.782,5.827c.256,0,.516.038.771.053.221.012.441.015.659.035.28.024.554.044.835.047-.006.955-.021,1.909-.03,2.866-.008.707,0,1.415,0,2.122-.246-.017-.494-.029-.741-.043-.56-.032-1.126-.006-1.685,0-.685.006-1.368,0-2.052-.009-.187,0-.376,0-.563,0-.006-.771,0-1.541-.012-2.312-.015-.879-.043-1.76-.073-2.641L35.87,5.9C36.507,5.879,37.144,5.834,37.782,5.827ZM9.123,5.9c.4,0,.809,0,1.215.009.178.006.357.014.537.023.015.586.038,1.17.059,1.755.024.616.021,1.235.027,1.856.006.507.05,1.013.068,1.518,0,.027,0,.056,0,.085-.73-.008-1.46-.018-2.187-.006-.984.017-1.967-.015-2.951-.037,0-.164-.015-.33-.015-.5,0-.575,0-1.15,0-1.723-.011-.987-.018-1.974-.032-2.962.89-.011,1.78-.023,2.673-.023C8.717,5.9,8.92,5.9,9.123,5.9Zm1.606,33.435c-.411-.009-.824-.012-1.238-.021-.575-.015-1.147-.05-1.72-.068-.5-.014-.99-.015-1.485-.02-.017-.572-.012-1.147-.017-1.713-.014-.853,0-1.708,0-2.562q1.084,0,2.169-.011c.379,0,.753-.009,1.129-.012a6.383,6.383,0,0,1,.87.024l-.324-.044a10.073,10.073,0,0,0,1.191.09c0,1.445,0,2.89.046,4.335-.055,0-.111,0-.166,0C11.026,39.331,10.877,39.337,10.729,39.331Zm19.079-2.07c-1.089-.012-2.18-.038-3.266-.065-1.141-.03-2.277-.111-3.418-.143-.552-.015-1.1-.021-1.652-.021-.615,0-1.228.008-1.844.018-1.967.037-3.935.021-5.9.1.02-.922.084-1.844.1-2.769A1.182,1.182,0,0,0,13.6,33.7a1.259,1.259,0,0,0-1.246-1.215c-.444,0-.884,0-1.328-.009h-.336c-.245,0-.488,0-.736-.012-.379-.021-.758-.03-1.136-.046-.1-.945-.1-1.9-.129-2.845-.015-.538-.05-1.079-.05-1.617s.012-1.1,0-1.647c-.02-1.152-.008-2.306-.017-3.462,0-.566-.015-1.129-.018-1.695-.006-.532.075-1.066.09-1.6.015-.482,0-.964.021-1.447.018-.519.05-1.033.087-1.549.067-1.012.108-2.023.14-3.035.5.011,1.007.035,1.511.044.274.006.548.006.818.006h.688a1.18,1.18,0,0,0,.327-.067c.006,0,.012,0,.02,0A1.218,1.218,0,0,0,13.514,12.3c-.04-.414-.037-.831-.049-1.244-.015-.5-.03-1.012-.027-1.518,0-.281,0-.563,0-.846q1.346.014,2.7.009c1.322-.006,2.647-.012,3.969.024,1.144.032,2.283.081,3.427.1.625.012,1.253.009,1.882.006.535,0,1.075,0,1.614,0,.905.009,1.8,0,2.706-.041.485-.024.974-.041,1.462-.059.447-.02.9-.046,1.346-.023.023.867.03,1.734.032,2.6a1.232,1.232,0,0,0-.333.826,1.254,1.254,0,0,0,1.247,1.247c1.168-.02,2.34-.059,3.511-.062.006,1.288.026,2.574.032,3.859q.009.929.006,1.854c0,.6-.047,1.2-.068,1.8-.041,1.085-.053,2.168-.05,3.252,0,.6,0,1.2.018,1.8s.068,1.167.093,1.748c.073,1.7.179,3.4.2,5.094-1.107-.037-2.212-.1-3.319-.164l-.055,0A1.325,1.325,0,0,0,32.6,33.872c0,.012.006.02.006.032a1.237,1.237,0,0,0-.42.925c0,.8.02,1.6.037,2.408C31.416,37.269,30.612,37.269,29.808,37.261Zm9.921,2.2-.122.02c-.3.027-.612.024-.917.024-.45,0-.9.009-1.352.012-.888.011-1.778.011-2.667.015-.023-.566-.024-1.132-.011-1.7.021-.875.033-1.749.041-2.626.878.032,1.754.064,2.632.067.5,0,1.01.006,1.515-.015a7.132,7.132,0,0,0,1.04-.145c0,.724.021,1.447.081,2.169.044.551.1,1.1.149,1.649.012.164.023.332.032.5-.02,0-.04-.008-.061-.008A2.574,2.574,0,0,0,39.729,39.456Z" transform="translate(-3 -3.208)" fill="url(#linear-gradient)"/>
</svg>
