<svg xmlns="http://www.w3.org/2000/svg" xmlns:xlink="http://www.w3.org/1999/xlink" width="43.505" height="43.622" viewBox="0 0 43.505 43.622">
  <defs>
    <linearGradient id="linear-gradient" y1="0.642" x2="1" y2="0.115" gradientUnits="objectBoundingBox">
      <stop offset="0" stop-color="#7c3cdc"/>
      <stop offset="0.494" stop-color="#365ef3"/>
      <stop offset="1" stop-color="#16f9b2"/>
    </linearGradient>
  </defs>
  <path id="_4" data-name="4" d="M41.37,2.048C38.73-.592,26.04-1.9,19.2,4.939a50.606,50.606,0,0,0-4.878,5.522A7.271,7.271,0,0,0,7.634,12.65l-4.82,4.82a1.362,1.362,0,0,0,0,1.928l1.933,1.933a1.362,1.362,0,0,0,1.928,0,3.6,3.6,0,0,1,3.717-1.175,11.131,11.131,0,0,0,2.007,6.5c-.328.469-.742,1-1.1,1.447a1.36,1.36,0,0,0,.1,1.815l2.1,2.1a1.359,1.359,0,0,0,1.815.1c.443-.356.976-.772,1.447-1.1a11.14,11.14,0,0,0,6.5,2.007,3.6,3.6,0,0,1-1.175,3.717,1.362,1.362,0,0,0,0,1.928L24.021,40.6a1.362,1.362,0,0,0,1.928,0l4.821-4.821a7.266,7.266,0,0,0,2.187-6.69,50.461,50.461,0,0,0,5.522-4.878C45.319,17.379,44.011,4.689,41.37,2.048ZM12.075,17.89a6.074,6.074,0,0,0-6.288.624l-.08-.08,3.856-3.856a4.583,4.583,0,0,1,4.546-1.368A16.129,16.129,0,0,0,12.075,17.89Zm2.491,11.333-.37-.37A66.2,66.2,0,0,1,21.5,20l1.441.48.48,1.441A66.241,66.241,0,0,1,14.566,29.223ZM28.84,33.857l-3.856,3.856-.08-.08a6.074,6.074,0,0,0,.625-6.288,16.159,16.159,0,0,0,4.678-2.032A4.578,4.578,0,0,1,28.84,33.857Zm-4.3-3.665-.53.058a8.084,8.084,0,0,1-4.712-.9l-.249-.128a10.859,10.859,0,0,1-1.119-.738,70.951,70.951,0,0,0,7.053-6.187L24.022,19.4l-2.892-.964a70.6,70.6,0,0,0-6.187,7.053,10.859,10.859,0,0,1-.738-1.119l-.128-.25a8.082,8.082,0,0,1-.9-4.711l.057-.53c.581-3.412,3.172-7.28,7.9-12.01C27.076.926,38.249,2.781,39.445,3.979s3.053,12.37-2.892,18.314C31.822,27.019,27.953,29.61,24.542,30.192Zm-15.4,2.837a2.646,2.646,0,0,0-1.913-.782c-1.865,0-3.745,1.786-4.1,2.144A11.992,11.992,0,0,0,0,42.172v1.364H1.364A11.987,11.987,0,0,0,9.143,40.41c1.7-1.7,3.081-4.3,1.364-6.017ZM7.215,38.482a8.431,8.431,0,0,1-4.307,2.139,8.4,8.4,0,0,1,2.143-4.3,5.032,5.032,0,0,1,2.163-1.365l1.345,1.323A4.424,4.424,0,0,1,7.215,38.482ZM30.767,7.2a5.453,5.453,0,1,0,5.453,5.453A5.453,5.453,0,0,0,30.767,7.2Zm0,9.543a4.089,4.089,0,1,1,4.089-4.089A4.1,4.1,0,0,1,30.767,16.741Z" transform="translate(0 0.086)" fill="url(#linear-gradient)"/>
</svg>
