<svg xmlns="http://www.w3.org/2000/svg" xmlns:xlink="http://www.w3.org/1999/xlink" width="62.679" height="62.876" viewBox="0 0 62.679 62.876">
  <defs>
    <linearGradient id="linear-gradient" x1="1" y1="0.102" x2="0.255" y2="1" gradientUnits="objectBoundingBox">
      <stop offset="0" stop-color="#16f9b2"/>
      <stop offset="0.469" stop-color="#4f72f3"/>
      <stop offset="1" stop-color="#7c3cdc"/>
    </linearGradient>
  </defs>
  <g id="_6" data-name="6" transform="translate(-0.626 -652.362)">
    <path id="path4292" d="M9.318,652.362a8.693,8.693,0,0,0,0,17.385,8.609,8.609,0,0,0,2.349-.328l2.113,3.548a19,19,0,1,0,25.072,28.342l3.216,2.427a8.6,8.6,0,0,0-.472,2.808,8.723,8.723,0,1,0,2.567-6.15l-2.92-2.2a18.955,18.955,0,0,0,.787-18.43l7.226-5.295a8.678,8.678,0,1,0-2.471-3.061l-6.879,5.04a18.975,18.975,0,0,0-22.741-5.473l-2.056-3.453a8.68,8.68,0,0,0-5.791-15.158Zm0,3.93a4.763,4.763,0,1,1-4.763,4.763,4.734,4.734,0,0,1,4.763-4.763Zm45.294,6.583a4.763,4.763,0,1,1-4.763,4.763A4.733,4.733,0,0,1,54.612,662.874ZM25.039,673.191A15.079,15.079,0,1,1,9.959,688.27a15.049,15.049,0,0,1,15.079-15.079Zm-.13,3.969c-4-.063-7.177,4.59-5.571,8.278a6.225,6.225,0,0,0,2.35,2.906,10.2,10.2,0,0,0-5.712,9.443c-.009.755-.08,1.533.644,1.511,5.4-.11,11.973.024,17.369-.012.706-4.294-1.448-9.122-5.519-10.928,2.854-1.888,3.666-6.346,1.312-8.945a6.2,6.2,0,0,0-4.874-2.252Zm.1,3.718a2.142,2.142,0,0,1,.253.012c2.048.094,3.014,3.233,1.179,4.333-1.448,1.029-3.922-.037-3.754-1.946A2.451,2.451,0,0,1,25.011,680.878Zm.158,10.5a5.54,5.54,0,0,1,4.912,4.17c-3.345,0-6.69.009-10.034-.01a5.5,5.5,0,0,1,4.894-4.158q.115,0,.228,0Zm25.12,10.406a4.763,4.763,0,1,1-4.763,4.763A4.734,4.734,0,0,1,50.289,701.782Z" fill="url(#linear-gradient)"/>
  </g>
</svg>
