<svg xmlns="http://www.w3.org/2000/svg" xmlns:xlink="http://www.w3.org/1999/xlink" width="48" height="43.998" viewBox="0 0 48 43.998">
  <defs>
    <linearGradient id="linear-gradient" y1="1" x2="0.931" y2="0.5" gradientUnits="objectBoundingBox">
      <stop offset="0" stop-color="#7c3cdc"/>
      <stop offset="0.498" stop-color="#365cf3"/>
      <stop offset="1" stop-color="#15e8b7"/>
    </linearGradient>
  </defs>
  <g id="_1" data-name="1" transform="translate(0 -15.005)">
    <path id="XMLID_226_" d="M36,31.144V25c0-2.934-2.057-5.578-5.792-7.446A27.921,27.921,0,0,0,18,15.005,27.922,27.922,0,0,0,5.791,17.559C2.057,19.427,0,22.071,0,25V49c0,2.934,2.057,5.578,5.792,7.446A27.921,27.921,0,0,0,18,59,30.1,30.1,0,0,0,27.684,57.5,14,14,0,1,0,36,31.144ZM4,39.408A15.871,15.871,0,0,0,5.792,40.45,27.921,27.921,0,0,0,18,43q1.083,0,2.151-.069a14.035,14.035,0,0,0-.02,3.993c-.7.05-1.415.075-2.131.075C9.987,47,4,43.836,4,41Zm17.446-.6A29.523,29.523,0,0,1,18,39C9.987,39,4,35.836,4,33v-1.6A15.85,15.85,0,0,0,5.792,32.45,27.92,27.92,0,0,0,18,35a32.051,32.051,0,0,0,7.053-.764A14.088,14.088,0,0,0,21.446,38.8ZM18,19.005c8.012,0,14,3.167,14,6s-5.987,6-14,6S4,27.837,4,25,9.987,19.005,18,19.005ZM4,49v-1.6a15.85,15.85,0,0,0,1.791,1.042A27.92,27.92,0,0,0,18,51c1.1,0,2.2-.054,3.277-.159a14.044,14.044,0,0,0,2.393,3.6A28.507,28.507,0,0,1,18,55C9.987,55,4,51.836,4,49Zm30,6a10,10,0,0,1-.046-20L34,35l.046,0A10,10,0,0,1,34,55Z" fill="url(#linear-gradient)"/>
    <text id="_" data-name="$" transform="translate(30 49.781)" fill="#24a9d3" font-size="15" font-family="Poppins-Bold, Poppins" font-weight="700"><tspan x="0" y="0">$</tspan></text>
  </g>
</svg>
